HIERARCHY
ROOT root
{
	OFFSET 0.000000 0.000000 0.000000
	CHANNELS 6 Xposition Yposition Zposition Zrotation Yrotation Xrotation
	JOINT lhip
	{
		OFFSET 0.058581 -0.082280 -0.017664
		CHANNELS 3 Zrotation Yrotation Xrotation
		JOINT lknee
		{
			OFFSET 0.043451 -0.386469 0.008037
			CHANNELS 3 Zrotation Yrotation Xrotation
			JOINT lankle
			{
				OFFSET -0.014790 -0.426874 -0.037428
				CHANNELS 3 Zrotation Yrotation Xrotation
				JOINT ltoe
				{
					OFFSET 0.041054 -0.060286 0.122042
					CHANNELS 3 Zrotation Yrotation Xrotation
					End Site
					{
						OFFSET 0.000000 0.000000 0.000000
					}
				}
			}
		}
	}
	JOINT rhip
	{
		OFFSET -0.060310 -0.090513 -0.013543
		CHANNELS 3 Zrotation Yrotation Xrotation
		JOINT rknee
		{
			OFFSET -0.043257 -0.383688 -0.004843
			CHANNELS 3 Zrotation Yrotation Xrotation
			JOINT rankle
			{
				OFFSET 0.019056 -0.420046 -0.034562
				CHANNELS 3 Zrotation Yrotation Xrotation
				JOINT rtoe
				{
					OFFSET -0.034840 -0.062106 0.130323
					CHANNELS 3 Zrotation Yrotation Xrotation
					End Site
					{
						OFFSET 0.000000 0.000000 0.000000
					}
				}
			}
		}
	}
	JOINT lowerback
	{
		OFFSET 0.004439 0.124404 -0.038385
		CHANNELS 3 Zrotation Yrotation Xrotation
		JOINT upperback
		{
			OFFSET 0.004488 0.137956 0.026820
			CHANNELS 3 Zrotation Yrotation Xrotation
			JOINT chest
			{
				OFFSET -0.002265 0.056032 0.002855
				CHANNELS 3 Zrotation Yrotation Xrotation
				JOINT lowerneck
				{
					OFFSET -0.013390 0.211636 -0.033468
					CHANNELS 3 Zrotation Yrotation Xrotation
					JOINT upperneck
					{
						OFFSET 0.010113 0.088937 0.050410
						CHANNELS 3 Zrotation Yrotation Xrotation
						End Site
						{
							OFFSET 0.000000 0.000000 0.000000
						}
					}
				}
				JOINT lclavicle
				{
					OFFSET 0.071702 0.114000 -0.018898
					CHANNELS 3 Zrotation Yrotation Xrotation
					JOINT lshoulder
					{
						OFFSET 0.122921 0.045205 -0.019046
						CHANNELS 3 Zrotation Yrotation Xrotation
						JOINT lelbow
						{
							OFFSET 0.255332 -0.015649 -0.022946
							CHANNELS 3 Zrotation Yrotation Xrotation
							JOINT lwrist
							{
								OFFSET 0.265709 0.012698 -0.007375
								CHANNELS 3 Zrotation Yrotation Xrotation
								End Site
								{
									OFFSET 0.000000 0.000000 0.000000
								}
							}
						}
					}
				}
				JOINT rclavicle
				{
					OFFSET -0.082954 0.112472 -0.023707
					CHANNELS 3 Zrotation Yrotation Xrotation
					JOINT rshoulder
					{
						OFFSET -0.113228 0.046853 -0.008472
						CHANNELS 3 Zrotation Yrotation Xrotation
						JOINT relbow
						{
							OFFSET -0.260127 -0.014369 -0.031269
							CHANNELS 3 Zrotation Yrotation Xrotation
							JOINT rwrist
							{
								OFFSET -0.269108 0.006794 -0.006027
								CHANNELS 3 Zrotation Yrotation Xrotation
								End Site
								{
									OFFSET 0.000000 0.000000 0.000000
								}
							}
						}
					}
				}
			}
		}
	}
}
MOTION
Frames: 14
Frame Time: 0.033333
0.095575 0.537854 0.990912 94.658120 -0.896903 97.173237 -7.900630 2.950039 1.072513 -3.042223 -12.827731 -3.011927 4.313088 15.137830 -11.706696 0.000000 -0.000000 0.000000 -27.430852 -8.271181 -3.540277 -0.648381 5.887833 9.016283 27.613755 -13.088195 14.848882 0.000000 -0.000000 0.000000 5.629879 -1.552940 0.283504 1.588618 -10.423678 -22.056829 2.479769 0.029560 5.641585 -4.488879 28.168245 9.405024 -8.253504 33.755203 -24.284695 27.726144 -5.141647 -17.865795 14.827641 -4.396913 -29.393109 -2.013725 -2.996542 -31.878315 -19.766269 -10.984269 -6.643542 -26.066334 -16.228997 -16.617968 1.301811 0.342979 -8.163587 -104.004333 48.989711 -98.873296 21.786649 15.382525 -31.987631 
0.095460 0.538040 0.990821 94.635298 -0.916811 97.125413 -7.888586 2.949559 1.187969 -3.096783 -12.810469 -3.131872 4.262259 15.133627 -11.660199 0.000000 -0.000000 0.000000 -27.478772 -8.344124 -3.534239 -0.670502 5.868303 9.036738 27.656583 -12.976211 14.942639 0.000000 -0.000000 0.000000 5.610324 -1.522034 0.337611 1.605994 -10.451026 -22.042040 2.476341 0.019348 5.672893 -4.469576 28.227998 9.376971 -8.277832 33.711114 -24.231117 27.701921 -5.178194 -17.846043 14.924730 -4.290180 -29.541647 -1.928090 -2.936249 -31.936449 -20.440774 -11.107043 -6.549459 -26.008428 -16.268337 -16.665144 1.307643 0.363471 -8.300675 -104.033067 48.964693 -98.747600 22.032364 15.486859 -32.070994 
0.095387 0.538214 0.990694 94.599275 -0.943826 97.163507 -7.937594 2.926434 1.131695 -3.117037 -12.744350 -3.122175 4.335285 15.116297 -11.698684 0.000000 -0.000000 0.000000 -27.518385 -8.329728 -3.613357 -0.668666 5.820669 9.056949 27.606480 -12.950897 14.883475 0.000000 -0.000000 0.000000 5.597298 -1.502399 0.250503 1.614285 -10.438685 -22.019523 2.445516 -0.010195 5.691446 -4.479720 28.314168 9.389555 -8.333641 33.718117 -24.252153 27.704653 -5.254061 -17.746589 15.056631 -4.180617 -29.701494 -1.838730 -2.721211 -32.078856 -20.881742 -10.922689 -6.074494 -26.021327 -16.271604 -16.586929 1.345785 0.361032 -8.346513 -104.041182 48.951894 -98.734157 22.221396 15.659643 -32.009373 
0.095521 0.538541 0.990646 94.630590 -0.960123 97.112645 -7.962346 3.093191 1.196431 -3.120191 -12.822955 -3.109251 4.324130 15.008387 -11.643695 0.000000 -0.000000 0.000000 -27.540531 -8.362421 -3.536622 -0.688778 5.968587 9.057094 27.497267 -12.927523 15.061021 0.000000 -0.000000 0.000000 5.670426 -1.500324 0.302712 1.608939 -10.472996 -22.055829 2.399312 -0.040297 5.602463 -4.572714 28.389392 9.434985 -8.430563 33.792811 -24.295748 27.703227 -5.224720 -17.725417 14.992193 -4.122980 -29.624741 -1.881311 -2.767398 -31.928145 -21.240411 -10.994159 -6.292974 -26.069637 -16.240904 -16.460497 1.378442 0.442647 -8.362044 -103.957737 48.972380 -98.748156 22.089981 15.471739 -31.961916 
0.095402 0.538863 0.990592 94.732564 -0.958327 97.109007 -7.958472 3.062460 1.220361 -3.119004 -12.830759 -3.164847 4.352568 14.949915 -11.656717 0.000000 -0.000000 0.000000 -27.560092 -8.439629 -3.514729 -0.706472 5.837268 9.076460 27.559281 -12.906902 15.137504 0.000000 -0.000000 0.000000 5.730138 -1.555955 0.279001 1.576191 -10.471252 -21.994714 2.377957 0.053922 5.534844 -4.580909 28.307081 9.385284 -8.311468 33.770843 -24.241709 27.668431 -5.215731 -17.700661 14.935937 -4.089700 -29.387521 -1.934356 -3.078903 -31.555585 -21.513668 -11.269330 -6.845474 -26.041306 -16.286205 -16.482392 1.434843 0.440463 -8.305647 -103.967931 48.978208 -98.764311 21.450259 15.280272 -32.215448 
0.095812 0.539038 0.990567 94.688755 -0.957942 96.940436 -7.964078 3.254408 1.455348 -3.089401 -12.933200 -3.228125 4.291376 14.877784 -11.673912 0.000000 -0.000000 0.000000 -27.604989 -8.414395 -3.304946 -0.719914 5.874914 8.978332 27.496432 -12.766555 15.258310 0.000000 -0.000000 0.000000 5.730033 -1.487173 0.262023 1.561975 -10.500653 -21.710788 2.373635 0.054916 5.421921 -4.569825 28.301352 9.532318 -8.294156 33.730589 -24.243786 27.683322 -5.369829 -17.788780 14.923412 -3.941815 -29.412014 -1.873804 -2.959096 -31.382918 -21.560844 -11.274722 -6.652624 -26.076910 -16.163021 -16.482462 1.494400 0.322312 -8.422207 -104.111378 49.097754 -98.769705 21.322926 15.232126 -32.533108 
0.095225 0.539149 0.990474 94.860094 -0.907616 97.017776 -7.885607 3.119488 1.194144 -3.184486 -12.736035 -2.944799 4.342044 14.662674 -11.723524 0.000000 -0.000000 0.000000 -27.511273 -8.331492 -3.340886 -0.745324 5.751419 9.035985 27.418037 -12.784575 15.223992 0.000000 -0.000000 0.000000 5.770461 -1.567282 0.296214 1.589584 -10.533262 -21.730039 2.452580 0.178051 5.335756 -4.598758 28.225470 9.383582 -8.217084 33.770953 -24.096102 27.766080 -5.380298 -18.000696 14.783666 -4.123963 -29.629552 -1.838875 -2.771929 -31.464425 -21.495057 -11.159577 -6.256213 -26.157279 -16.155891 -16.463661 1.603581 0.193064 -8.554529 -104.127021 49.099132 -98.654337 21.603347 15.511757 -32.563598 
0.095534 0.539236 0.990304 94.756368 -0.953844 96.838649 -7.916466 3.259083 1.493615 -3.197286 -12.863025 -3.105267 4.258853 14.696162 -11.702243 0.000000 -0.000000 0.000000 -27.622155 -8.525791 -3.191093 -0.795854 5.692362 8.962084 27.555532 -12.666893 15.494376 0.000000 -0.000000 0.000000 5.705692 -1.398767 0.354858 1.501040 -10.544213 -21.455517 2.486655 0.219933 5.275333 -4.729323 28.128456 9.287787 -8.101951 33.731055 -24.167673 27.791646 -5.470030 -18.131125 14.805974 -4.027742 -29.758090 -1.850916 -2.790420 -31.776071 -21.637315 -11.117750 -5.981659 -26.195521 -16.160477 -16.651694 1.670559 0.052281 -8.546513 -104.171044 49.230621 -98.636081 21.898132 15.444436 -32.324849 
0.095044 0.539404 0.990204 94.765286 -0.947371 96.919895 -7.932398 2.964947 1.362675 -3.230691 -12.648004 -3.061766 4.278161 14.805860 -11.735147 0.000000 -0.000000 0.000000 -27.603110 -8.454029 -3.338673 -0.799003 5.665015 9.082642 27.618149 -12.694101 15.422665 0.000000 -0.000000 0.000000 5.711823 -1.412888 0.291623 1.546688 -10.504660 -21.554559 2.485238 0.262334 5.369960 -4.695519 28.076002 9.423294 -8.207752 33.608137 -24.229112 27.793290 -5.191065 -18.127385 14.630962 -4.339627 -29.849961 -1.677042 -2.636528 -32.107826 -21.346001 -10.930331 -5.779278 -26.142819 -16.209620 -16.564396 1.623988 0.111996 -8.468713 -104.116084 49.041282 -98.558889 21.730440 15.430665 -32.353638 
0.095195 0.539415 0.990203 94.689752 -0.970009 96.858641 -7.970567 3.086272 1.469722 -3.214623 -12.817772 -3.107161 4.389470 14.953892 -11.692555 0.000000 -0.000000 0.000000 -27.638848 -8.436758 -3.214939 -0.797025 5.898157 8.878103 27.547887 -12.801875 15.405165 0.000000 -0.000000 0.000000 5.637997 -1.332916 0.260630 1.530483 -10.477762 -21.514883 2.529796 0.357644 5.394711 -4.683153 28.070735 9.521350 -8.186414 33.692610 -24.214726 27.809469 -5.204887 -18.143773 14.533195 -4.381682 -29.686849 -1.755493 -2.805650 -32.077428 -19.954189 -10.694253 -5.884975 -26.216035 -16.140748 -16.500051 1.665054 -0.107265 -8.420257 -104.273038 49.024285 -98.666118 21.198391 15.066107 -32.258747 
0.095036 0.539468 0.990118 94.811335 -0.990084 96.938113 -7.999536 2.972661 1.302670 -3.207217 -12.919892 -3.008733 4.429426 15.002142 -11.663544 0.000000 -0.000000 0.000000 -27.640353 -8.502195 -3.328109 -0.776893 5.897858 9.064992 27.595129 -12.934145 15.307017 0.000000 -0.000000 0.000000 5.650868 -1.383023 0.125367 1.498157 -10.512460 -21.590113 2.481960 0.372510 5.502129 -4.649129 28.035011 9.444108 -8.155101 33.721639 -24.135275 27.830914 -5.032820 -18.174411 14.394436 -4.609693 -29.599425 -1.646849 -2.959562 -32.259048 -18.886064 -10.391593 -6.070618 -26.211705 -16.235749 -16.672004 1.801995 0.068684 -8.226272 -104.235704 48.981169 -98.632741 20.988261 14.691406 -31.968120 
0.095502 0.539462 0.990161 94.726868 -0.988467 96.738337 -7.988447 3.296266 1.578155 -3.206061 -12.945950 -3.043538 4.281985 14.864197 -11.734034 0.000000 -0.000000 0.000000 -27.683990 -8.563191 -3.185422 -0.822452 5.904941 9.090875 27.672614 -12.668806 15.447377 0.000000 -0.000000 0.000000 5.602696 -1.288415 0.161371 1.459323 -10.503279 -21.328843 2.505419 0.383826 5.337602 -4.609549 27.942831 9.595576 -8.159645 33.576974 -24.095825 27.843400 -5.225891 -18.182422 14.274181 -4.575013 -29.658394 -1.361584 -2.776991 -32.125142 -19.430597 -10.338388 -5.564323 -26.283963 -16.092757 -16.578147 1.867928 -0.104583 -8.412391 -104.299801 48.962536 -98.868043 21.249439 15.122101 -32.473474 
0.095235 0.539370 0.990113 94.875049 -0.938715 96.819612 -7.921459 2.974510 1.409525 -3.222588 -12.741074 -2.909689 4.366229 14.800345 -11.812541 0.000000 -0.000000 0.000000 -27.616231 -8.426793 -3.204782 -0.777785 5.833395 9.104810 27.539083 -12.779264 15.437454 0.000000 -0.000000 0.000000 5.623083 -1.327142 -0.000386 1.493414 -10.546836 -21.224588 2.474214 0.419130 5.312525 -4.663098 28.022363 9.418909 -8.144933 33.545241 -24.008274 27.875610 -5.219308 -18.315246 14.269054 -4.709981 -29.732141 -1.449561 -2.601090 -32.365134 -19.941421 -10.445032 -5.197151 -26.275699 -16.123439 -16.570070 1.952594 -0.024783 -8.409253 -104.166973 48.798148 -98.725075 21.643581 15.331499 -32.177897 
0.096013 0.539130 0.989842 94.575101 -0.894254 96.550860 -7.846262 3.576250 1.819686 -3.238992 -12.847362 -3.035372 4.259531 14.648949 -11.892651 0.000000 -0.000000 0.000000 -27.649606 -8.428056 -3.190832 -0.763829 5.886071 9.363682 27.619001 -12.491820 15.480169 0.000000 -0.000000 0.000000 5.552001 -1.268963 -0.042908 1.465101 -10.437371 -20.729502 2.465954 0.468385 5.165370 -4.659040 28.163463 9.482012 -8.065214 33.435690 -24.069971 27.918385 -5.340545 -18.362723 14.259044 -4.581756 -29.755587 -1.326956 -2.629900 -32.162450 -20.388417 -10.435937 -5.184593 -26.236672 -15.906139 -16.395251 1.948295 -0.199315 -8.673197 -104.174243 48.804899 -98.695923 21.921003 15.416790 -32.259028 
